<svg xmlns="http://www.w3.org/2000/svg" xmlns:xlink="http://www.w3.org/1999/xlink" id="Layer_1" x="0" y="0" version="1.1" viewBox="0 0 600 600" style="enable-background:new 0 0 600 600" xml:space="preserve"><style type="text/css">.st0{fill:url(#XMLID_2_)}.st1{fill:url(#XMLID_3_)}.st2{fill:url(#XMLID_4_)}.st3{fill:url(#XMLID_5_)}</style><g id="XMLID_965_"><g id="XMLID_2341_"><linearGradient id="XMLID_2_" x1="147.369" x2="446.457" y1="234.465" y2="427.425" gradientUnits="userSpaceOnUse"><stop offset="0" style="stop-color:#29c1fc"/><stop offset=".502" style="stop-color:#ab00ff"/><stop offset=".508" style="stop-color:#ac03fc"/><stop offset=".641" style="stop-color:#c840b8"/><stop offset=".76" style="stop-color:#de7082"/><stop offset=".863" style="stop-color:#ee935b"/><stop offset=".945" style="stop-color:#f7a844"/><stop offset=".996" style="stop-color:#fbb03b"/></linearGradient><path id="XMLID_2343_" d="M244.8,171.1c0,0-14,14-30.4,30.4L148.3,267c-27,27.5-16.4,55.5,2.4,74.3l54,54 c4.8,4.8,23.6,24.6,38.6,9.2c8.7-8.7,6.8-22.2,1.9-27.5l-62.2-61.7c-11.1-11.1-5.8-21.2,5.3-31.8l53.1-53.1l33.3,33.3 c11.6,11.6,26,15.9,38.1,3.9c12.1-12.1,4.8-23.6-6.8-35.2l-36.7-36.7L244.8,171.1z" class="st0"/><linearGradient id="XMLID_3_" x1="193.021" x2="492.11" y1="163.703" y2="356.664" gradientUnits="userSpaceOnUse"><stop offset="0" style="stop-color:#29c1fc"/><stop offset=".502" style="stop-color:#ab00ff"/><stop offset=".508" style="stop-color:#ac03fc"/><stop offset=".641" style="stop-color:#c840b8"/><stop offset=".76" style="stop-color:#de7082"/><stop offset=".863" style="stop-color:#ee935b"/><stop offset=".945" style="stop-color:#f7a844"/><stop offset=".996" style="stop-color:#fbb03b"/></linearGradient><path id="XMLID_2342_" d="M247.7,173.5c-8.7-8.7-21.2-13.5-33.3-1.4c-12.1,12.1-5.8,25.6,1.9,33.3" class="st1"/></g><g id="XMLID_2338_"><linearGradient id="XMLID_4_" x1="177.408" x2="476.496" y1="187.904" y2="380.865" gradientUnits="userSpaceOnUse"><stop offset="0" style="stop-color:#29c1fc"/><stop offset=".502" style="stop-color:#ab00ff"/><stop offset=".508" style="stop-color:#ac03fc"/><stop offset=".641" style="stop-color:#c840b8"/><stop offset=".76" style="stop-color:#de7082"/><stop offset=".863" style="stop-color:#ee935b"/><stop offset=".945" style="stop-color:#f7a844"/><stop offset=".996" style="stop-color:#fbb03b"/></linearGradient><path id="XMLID_2340_" d="M354.8,428.7c0,0,14-14,30.4-30.4l66.1-66.1c27.5-27.5,16.9-55.5-2.4-74.3l-54-53.5 c-4.8-4.8-23.6-24.6-38.6-9.2c-8.7,8.7-6.8,22.2-1.9,27.5l62.2,61.7c11.1,11.1,5.8,21.2-5.3,31.8l-53.1,53.1L324.9,336 c-11.6-11.6-26-15.9-38.1-3.9s-4.8,23.6,6.8,35.2l36.7,36.7L354.8,428.7z" class="st2"/><linearGradient id="XMLID_5_" x1="131.631" x2="430.72" y1="258.858" y2="451.818" gradientUnits="userSpaceOnUse"><stop offset="0" style="stop-color:#29c1fc"/><stop offset=".502" style="stop-color:#ab00ff"/><stop offset=".508" style="stop-color:#ac03fc"/><stop offset=".641" style="stop-color:#c840b8"/><stop offset=".76" style="stop-color:#de7082"/><stop offset=".863" style="stop-color:#ee935b"/><stop offset=".945" style="stop-color:#f7a844"/><stop offset=".996" style="stop-color:#fbb03b"/></linearGradient><path id="XMLID_2339_" d="M351.9,426.2c8.7,8.7,21.2,14,33.3,1.9s5.8-25.6-1.9-33.3" class="st3"/></g></g></svg>